<mxfile host="65bd71144e">
    <diagram id="xBMz8oEFLdkjrW7Th8Jx" name="Page-1">
        <mxGraphModel dx="849" dy="692" grid="1" gridSize="10" guides="1" tooltips="1" connect="1" arrows="1" fold="1" page="1" pageScale="1" pageWidth="850" pageHeight="1100" math="0" shadow="0">
            <root>
                <mxCell id="0"/>
                <mxCell id="1" parent="0"/>
                <mxCell id="2" value="App.js&lt;br&gt;state: phase&lt;br&gt;state setter: updatePhase" style="whiteSpace=wrap;html=1;" parent="1" vertex="1">
                    <mxGeometry x="270" y="60" width="240" height="130" as="geometry"/>
                </mxCell>
                <mxCell id="3" value="ProjectList&lt;br&gt;&lt;br&gt;- filtering projects&lt;br&gt;- needs the phase state" style="whiteSpace=wrap;html=1;" parent="1" vertex="1">
                    <mxGeometry x="90" y="340" width="280" height="100" as="geometry"/>
                </mxCell>
                <mxCell id="4" value="Filter&lt;br&gt;&lt;br&gt;- where buttons live&lt;br&gt;- onClicks -&amp;gt; update state in App" style="whiteSpace=wrap;html=1;" parent="1" vertex="1">
                    <mxGeometry x="510" y="350" width="200" height="90" as="geometry"/>
                </mxCell>
                <mxCell id="5" value="" style="endArrow=classic;html=1;exitX=0.038;exitY=1.023;exitDx=0;exitDy=0;exitPerimeter=0;entryX=0.474;entryY=-0.005;entryDx=0;entryDy=0;entryPerimeter=0;" parent="1" source="2" target="3" edge="1">
                    <mxGeometry relative="1" as="geometry">
                        <mxPoint x="420" y="260" as="sourcePoint"/>
                        <mxPoint x="520" y="260" as="targetPoint"/>
                    </mxGeometry>
                </mxCell>
                <mxCell id="7" value="" style="endArrow=classic;html=1;entryX=0.625;entryY=-0.067;entryDx=0;entryDy=0;entryPerimeter=0;" parent="1" target="4" edge="1">
                    <mxGeometry relative="1" as="geometry">
                        <mxPoint x="410" y="190" as="sourcePoint"/>
                        <mxPoint x="510" y="190" as="targetPoint"/>
                    </mxGeometry>
                </mxCell>
            </root>
        </mxGraphModel>
    </diagram>
</mxfile>